HIERARCHY
ROOT hip
{
  OFFSET 0 0 0
  CHANNELS 6 Xposition Yposition Zposition Zrotation Yrotation Xrotation
  JOINT abdomen
  {
    OFFSET 0 20.6881 -0.73152
    CHANNELS 3 Zrotation Xrotation Yrotation
    JOINT chest
    {
      OFFSET 0 11.7043 -0.48768
      CHANNELS 3 Zrotation Xrotation Yrotation
      JOINT neck
      {
        OFFSET 0 22.1894 -2.19456
        CHANNELS 3 Zrotation Xrotation Yrotation
        JOINT head
        {
          OFFSET -0.24384 7.07133 1.2192
          CHANNELS 3 Zrotation Xrotation Yrotation
          JOINT leftEye
          {
            OFFSET 4.14528 8.04674 8.04672
            CHANNELS 3 Zrotation Xrotation Yrotation
            End Site
            {
              OFFSET 1 0 0
            }
          }
          JOINT rightEye
          {
            OFFSET -3.6576 8.04674 8.04672
            CHANNELS 3 Zrotation Xrotation Yrotation
            End Site
            {
              OFFSET 1 0 0
            }
          }
        }
      }
      JOINT rCollar
      {
        OFFSET -2.68224 19.2634 -4.8768
        CHANNELS 3 Zrotation Xrotation Yrotation
        JOINT rShldr
        {
          OFFSET -8.77824 -1.95073 1.46304
          CHANNELS 3 Zrotation Xrotation Yrotation
          JOINT rForeArm
          {
            OFFSET -28.1742 -1.7115 0.48768
            CHANNELS 3 Zrotation Xrotation Yrotation
            JOINT rHand
            {
              OFFSET -22.5879 0.773209 7.07136
              CHANNELS 3 Zrotation Xrotation Yrotation
              JOINT rThumb1
              {
                OFFSET -1.2192 -0.487915 3.41376
                CHANNELS 3 Zrotation Xrotation Yrotation
                JOINT rThumb2
                {
                  OFFSET -3.37035 -0.52449 3.41376
                  CHANNELS 3 Zrotation Xrotation Yrotation
                  End Site
                  {
                    OFFSET -1.78271 -1.18214 1.43049
                  }
                }
              }
              JOINT rIndex1
              {
                OFFSET -7.75947 0.938293 5.60832
                CHANNELS 3 Zrotation Xrotation Yrotation
                JOINT rIndex2
                {
                  OFFSET -2.54057 -0.884171 1.56538
                  CHANNELS 3 Zrotation Xrotation Yrotation
                  End Site
                  {
                    OFFSET -1.62519 -0.234802 1.16502
                  }
                }
              }
              JOINT rMid1
              {
                OFFSET -8.24714 1.18213 3.41376
                CHANNELS 3 Zrotation Xrotation Yrotation
                JOINT rMid2
                {
                  OFFSET -3.10165 -0.590103 1.0647
                  CHANNELS 3 Zrotation Xrotation Yrotation
                  End Site
                  {
                    OFFSET -2.48547 -0.328903 0.83742
                  }
                }
              }
              JOINT rRing1
              {
                OFFSET -8.82822 0.546677 1.51678
                CHANNELS 3 Zrotation Xrotation Yrotation
                JOINT rRing2
                {
                  OFFSET -2.60934 -0.819778 -0.0198488
                  CHANNELS 3 Zrotation Xrotation Yrotation
                  End Site
                  {
                    OFFSET -2.33842 -0.294052 0.168128
                  }
                }
              }
              JOINT rPinky1
              {
                OFFSET -8.27202 -0.0477905 -0.4584
                CHANNELS 3 Zrotation Xrotation Yrotation
                JOINT rPinky2
                {
                  OFFSET -1.82734 -0.647385 -0.700984
                  CHANNELS 3 Zrotation Xrotation Yrotation
                  End Site
                  {
                    OFFSET -1.69225 -0.51767 -0.607171
                  }
                }
              }
            }
          }
        }
      }
      JOINT lCollar
      {
        OFFSET 2.68224 19.2634 -4.8768
        CHANNELS 3 Zrotation Xrotation Yrotation
        JOINT lShldr
        {
          OFFSET 8.77824 -1.95073 1.46304
          CHANNELS 3 Zrotation Xrotation Yrotation
          JOINT lForeArm
          {
            OFFSET 28.1742 -1.7115 0.48768
            CHANNELS 3 Zrotation Xrotation Yrotation
            JOINT lHand
            {
              OFFSET 22.5879 0.773209 7.07136
              CHANNELS 3 Zrotation Xrotation Yrotation
              JOINT lThumb1
              {
                OFFSET 1.2192 -0.487915 3.41376
                CHANNELS 3 Zrotation Xrotation Yrotation
                JOINT lThumb2
                {
                  OFFSET 3.37035 -0.52449 3.41376
                  CHANNELS 3 Zrotation Xrotation Yrotation
                  End Site
                  {
                    OFFSET 1.78271 -1.18214 1.43049
                  }
                }
              }
              JOINT lIndex1
              {
                OFFSET 7.75947 0.938293 5.60832
                CHANNELS 3 Zrotation Xrotation Yrotation
                JOINT lIndex2
                {
                  OFFSET 2.54057 -0.884171 1.56538
                  CHANNELS 3 Zrotation Xrotation Yrotation
                  End Site
                  {
                    OFFSET 1.62519 -0.234802 1.16502
                  }
                }
              }
              JOINT lMid1
              {
                OFFSET 8.24714 1.18213 3.41376
                CHANNELS 3 Zrotation Xrotation Yrotation
                JOINT lMid2
                {
                  OFFSET 3.10165 -0.590103 1.0647
                  CHANNELS 3 Zrotation Xrotation Yrotation
                  End Site
                  {
                    OFFSET 2.48547 -0.328903 0.83742
                  }
                }
              }
              JOINT lRing1
              {
                OFFSET 8.82822 0.546677 1.51678
                CHANNELS 3 Zrotation Xrotation Yrotation
                JOINT lRing2
                {
                  OFFSET 2.60934 -0.819778 -0.0198488
                  CHANNELS 3 Zrotation Xrotation Yrotation
                  End Site
                  {
                    OFFSET 2.33842 -0.294052 0.168128
                  }
                }
              }
              JOINT lPinky1
              {
                OFFSET 8.27202 -0.0477905 -0.4584
                CHANNELS 3 Zrotation Xrotation Yrotation
                JOINT lPinky2
                {
                  OFFSET 1.82734 -0.647385 -0.700984
                  CHANNELS 3 Zrotation Xrotation Yrotation
                  End Site
                  {
                    OFFSET 1.69225 -0.51767 -0.607171
                  }
                }
              }
            }
          }
        }
      }
    }
  }
  JOINT rButtock
  {
    OFFSET -8.77824 4.35084 1.2192
    CHANNELS 3 Zrotation Xrotation Yrotation
    JOINT rThigh
    {
      OFFSET 0 -1.70687 -2.19456
      CHANNELS 3 Zrotation Xrotation Yrotation
      JOINT rShin
      {
        OFFSET 0 -36.8199 0.73152
        CHANNELS 3 Zrotation Xrotation Yrotation
        JOINT rFoot
        {
          OFFSET 0.73152 -45.1104 -5.12064
          CHANNELS 3 Zrotation Xrotation Yrotation
          End Site
          {
            OFFSET -1.1221 -3.69964 12.103
          }
        }
      }
    }
  }
  JOINT lButtock
  {
    OFFSET 8.77824 4.35084 1.2192
    CHANNELS 3 Zrotation Xrotation Yrotation
    JOINT lThigh
    {
      OFFSET 0 -1.70687 -2.19456
      CHANNELS 3 Zrotation Xrotation Yrotation
      JOINT lShin
      {
        OFFSET 0 -36.8199 0.73152
        CHANNELS 3 Zrotation Xrotation Yrotation
        JOINT lFoot
        {
          OFFSET -0.73152 -45.1104 -5.12064
          CHANNELS 3 Zrotation Xrotation Yrotation
          End Site
          {
            OFFSET 1.1221 -3.69964 12.103
          }
        }
      }
    }
  }
}
MOTION
Frames:	4
Frame Time:	0.03333
-0.02810000069439411 57.30039978027344 -2.9639999866485596 1.6285999305546284 2.024799920618534 4.099700152873993 -10.479900240898132 22.849701046943665 4.610309936106205 6.0845797508955 -8.735539689660072 1.2239300273358822 -4.24090001732111 16.992400288581848 -2.5887300074100494 8.879230320453644 -38.969500958919525 -2.2155299596488476 0.0 0.0 0.0 0.0 0.0 0.0 0.0 0.0 0.0 26.84949964284897 19.095800668001175 57.21900165081024 -17.69229993224144 -10.359699726104736 33.33369970321655 -0.17742100171744823 11.914699673652649 1.699329949915409 1.2291767603755943e-09 -1.1331735549902078e-09 3.9904080040287226e-10 2.1309354281129345e-09 -1.8621904018800706e-09 6.752998160663992e-10 1.2291767603755943e-09 -1.1331735549902078e-09 3.9904080040287226e-10 7.7309102565050125 5.474880114197731 0.41731400415301323 1.2291767603755943e-09 -1.1331735549902078e-09 3.9904080040287226e-10 2.905540131032467 0.9651830233633518 0.102901995414868 1.2291767603755943e-09 -1.1331735549902078e-09 3.9904080040287226e-10 10.27859978377819 0.7318009994924068 0.025912300043273717 1.2291767603755943e-09 -1.1331735549902078e-09 3.9904080040287226e-10 2.221670038998127 -0.733487019315362 -0.2089200052432716 0.0 0.0 0.0 -17.3334002494812 37.72010117769241 -66.74799978733063 26.14410012960434 -23.820199370384216 -57.20289766788483 3.1083999574184418 -43.73350113630295 7.72942028939724 3.4916070035251323e-10 7.845244454074418e-09 1.6473222785862163e-09 5.430855765098386e-10 1.3470184967445675e-08 2.8546764951897785e-09 3.4916070035251323e-10 7.845244454074418e-09 1.6473222785862163e-09 -7.7309102565050125 5.474880114197731 -0.41731400415301323 3.4916070035251323e-10 7.845244454074418e-09 1.6473222785862163e-09 -2.905540131032467 0.9651830233633518 -0.102901995414868 3.4916070035251323e-10 7.845244454074418e-09 1.6473222785862163e-09 -10.27859978377819 0.7318009994924068 -0.025912300043273717 3.4916070035251323e-10 7.845244454074418e-09 1.6473222785862163e-09 -2.221670038998127 -0.733487019315362 0.2089200052432716 0.0 0.0 0.0 -17.098900079727173 -62.24280059337616 -26.563399136066437 -142.50500321388245 88.21810126304626 142.99099802970886 -4.87379003316164 -9.212940037250519 -16.419700384140015 0.0 0.0 0.0 8.217450231313705 -41.72550022602081 20.00079944729805 2.806350030004978 76.17719829082489 -4.486210159957409 12.541499733924866 -16.70809954404831 33.65379989147186
-0.1151800025254488 57.25299835205078 -5.858999967575073 0.863099992275238 1.160599971190095 4.675000123679638 -9.930780306458473 22.658998668193817 4.922280013561249 6.0010698437690735 -8.770549893379211 1.3080099876970053 -4.298749901354313 16.781299710273743 -2.38384997472167 9.183600023388863 -38.84850114583969 -1.6859400272369385 0.0 0.0 0.0 0.0 0.0 0.0 0.0 0.0 0.0 27.115000784397125 19.447199553251266 58.668601512908936 -17.468300610780716 -10.126299932599068 32.83789873123169 -0.17834699247032404 11.944099366664886 1.7036499828100204 1.807993754709969e-09 5.115907697472721e-12 4.911271389573812e-10 3.1306157666222134e-09 1.432454155292362e-10 8.287770469905809e-10 1.807993754709969e-09 5.115907697472721e-12 4.911271389573812e-10 7.7309102565050125 5.474880114197731 0.41731400415301323 1.807993754709969e-09 5.115907697472721e-12 4.911271389573812e-10 2.905540131032467 0.9651830233633518 0.102901995414868 1.807993754709969e-09 5.115907697472721e-12 4.911271389573812e-10 10.27859978377819 0.7318009994924068 0.025912300043273717 1.807993754709969e-09 5.115907697472721e-12 4.911271389573812e-10 2.221670038998127 -0.733487019315362 -0.2089200052432716 0.0 0.0 0.0 -11.088500171899796 35.402600169181824 -74.62499856948853 27.032300233840942 -26.497298777103424 -61.66100263595581 2.801359947770834 -41.97950005531311 7.271449863910675 -5.587530438333488e-11 1.680575678619789e-09 1.7394086171407253e-10 -1.0167866548727034e-10 2.8751401259796694e-09 2.9672264645341784e-10 -5.587530438333488e-11 1.680575678619789e-09 1.7394086171407253e-10 -7.7309102565050125 5.474880114197731 -0.41731400415301323 -5.587530438333488e-11 1.680575678619789e-09 1.7394086171407253e-10 -2.905540131032467 0.9651830233633518 -0.102901995414868 -5.587530438333488e-11 1.680575678619789e-09 1.7394086171407253e-10 -10.27859978377819 0.7318009994924068 -0.025912300043273717 -5.587530438333488e-11 1.680575678619789e-09 1.7394086171407253e-10 -2.221670038998127 -0.733487019315362 0.2089200052432716 0.0 0.0 0.0 -14.60700049996376 -57.64659941196442 -24.81309950351715 -170.01799821853638 83.22759926319122 170.5970013141632 -5.302109979093075 -10.1937997341156 -18.315099477767944 0.0 0.0 0.0 10.849200189113617 -45.044299364089966 22.892600297927856 3.1526999920606613 76.82579934597015 -4.523820094764233 11.80679976940155 -15.402200371026993 32.37579971551895
-0.2746700067073107 57.413299560546875 -8.635999917984009 0.17390000517480075 0.495900004170835 5.379600003361702 -9.414510056376457 22.31800004839897 5.224729925394058 5.92428021132946 -8.917349874973297 1.3952400349080563 -4.424700066447258 16.580300331115723 -2.23171005025506 9.606670215725899 -38.62260013818741 -1.2322400137782097 0.0 0.0 0.0 0.0 0.0 0.0 -7.993605777301127e-14 0.0 0.0 27.24819928407669 20.01450017094612 60.2133983373642 -17.24769964814186 -9.900130033493042 32.353499829769135 -0.1699570007622242 11.673700511455536 1.6639199294149876 5.261391322619602e-10 7.776179700158536e-10 1.1254996934439987e-10 9.095924013990953e-10 1.3940848475613166e-09 1.8417267710901797e-10 5.261391322619602e-10 7.776179700158536e-10 1.1254996934439987e-10 7.7309102565050125 5.474880114197731 0.41731400415301323 5.261391322619602e-10 7.776179700158536e-10 1.1254996934439987e-10 2.905540131032467 0.9651830233633518 0.102901995414868 5.261391322619602e-10 7.776179700158536e-10 1.1254996934439987e-10 10.27859978377819 0.7318009994924068 0.025912300043273717 5.261391322619602e-10 7.776179700158536e-10 1.1254996934439987e-10 2.221670038998127 -0.733487019315362 -0.2089200052432716 -7.993605777301127e-14 0.0 0.0 -4.987750053405762 32.46139973402023 -83.07350099086761 27.830300331115723 -29.565399885177612 -66.38739824295044 2.2358999960124493 -38.51489871740341 6.41526997089386 2.2454038628438866e-10 -1.000159954855917e-09 8.185452315956354e-11 3.9032777010561404e-10 -1.708713170955889e-09 1.432454155292362e-10 2.2462032234216167e-10 -1.000159954855917e-09 8.185452315956354e-11 -7.7309102565050125 5.474880114197731 -0.41731400415301323 2.2462032234216167e-10 -1.000159954855917e-09 8.185452315956354e-11 -2.905540131032467 0.9651830233633518 -0.102901995414868 2.2454038628438866e-10 -1.000159954855917e-09 8.185452315956354e-11 -10.27859978377819 0.7318009994924068 -0.025912300043273717 2.2462032234216167e-10 -1.000159954855917e-09 8.185452315956354e-11 -2.221670038998127 -0.733487019315362 0.2089200052432716 0.0 0.0 0.0 -12.558299750089645 -51.82779908180237 -22.787801027297974 -172.9770004749298 79.96899962425232 173.6739993095398 -5.291950106620789 -10.77229991555214 -19.246000349521637 0.0 0.0 0.0 13.525399714708328 -48.02129924297333 25.689100921154022 3.3261799067258835 76.91529929637909 -4.376539997756481 10.942799896001816 -13.913500607013702 30.998699963092804
-0.5028300005942583 57.64459991455078 -11.266999959945679 -0.5103999841958284 -0.059499997878447175 6.139400079846382 -8.928739875555038 21.826800405979156 5.51699984818697 5.854760035872459 -9.175930246710777 1.4857500046491623 -4.6194301173090935 16.38960063457489 -2.1321000158786774 10.146500319242477 -38.29250067472458 -0.8557049743831158 0.0 0.0 0.0 0.0 0.0 0.0 -7.993605777301127e-14 0.0 0.0 27.2273987531662 20.768800377845764 61.87379837036133 -17.03089937567711 -9.681560173630714 31.880199909210205 -0.15352100017480552 11.103700250387192 1.5805300511419773 -2.616307170910659e-09 1.1792167242674623e-09 -7.366907084360719e-10 -4.53213466755642e-09 1.892885848064907e-09 -1.248281478183344e-09 -2.616227234852886e-09 1.1792167242674623e-09 -7.366907084360719e-10 7.7309102565050125 5.474880114197731 0.41731400415301323 -2.616307170910659e-09 1.1792167242674623e-09 -7.366907084360719e-10 2.905540131032467 0.9651830233633518 0.102901995414868 -2.616227234852886e-09 1.1792167242674623e-09 -7.366907084360719e-10 10.27859978377819 0.7318009994924068 0.025912300043273717 -2.616307170910659e-09 1.1792167242674623e-09 -7.366907084360719e-10 2.221670038998127 -0.733487019315362 -0.2089200052432716 -7.993605777301127e-14 0.0 0.0 0.5489339819177985 28.122698664665222 -91.13850116729736 28.318199515342712 -32.94440120458603 -71.82410180568695 1.587899923324585 -33.3241993188858 5.299890115857124 1.1905676444712299e-09 -1.9696244635269977e-10 1.3710632629226893e-09 2.0190249472307187e-09 -2.8393287720973603e-10 2.3942448024172336e-09 1.1905676444712299e-09 -1.9696244635269977e-10 1.3710632629226893e-09 -7.7309102565050125 5.474880114197731 -0.41731400415301323 1.1905676444712299e-09 -1.9696244635269977e-10 1.3710632629226893e-09 -2.905540131032467 0.9651830233633518 -0.102901995414868 1.1905676444712299e-09 -1.9696244635269977e-10 1.3710632629226893e-09 -10.27859978377819 0.7318009994924068 -0.025912300043273717 1.1905676444712299e-09 -1.9696244635269977e-10 1.3710632629226893e-09 -2.221670038998127 -0.733487019315362 0.2089200052432716 0.0 0.0 0.0 -11.261499971151352 -44.74999934434891 -20.84130048751831 -173.75900387763977 78.66119742393494 174.6020007133484 -4.791619889438152 -10.973100140690804 -19.20000046491623 0.0 0.0 0.0 16.14860013127327 -50.692301988601685 28.32639902830124 3.341500014066696 76.44530117511749 -4.058450125157833 9.970849826931953 -12.230500280857086 29.533199965953827
